HIERARCHY
ROOT Hips
{
	OFFSET 50.241600 -17.468216 97.009003
	CHANNELS 6 Xposition Yposition Zposition Xrotation Yrotation Zrotation
	JOINT spine
	{
		OFFSET 0.000000 -0.458069 7.965683
		CHANNELS 3 Xrotation Yrotation Zrotation
		JOINT spine1
		{
			OFFSET 0.000000 -0.000002 10.243103
			CHANNELS 3 Xrotation Yrotation Zrotation
			JOINT spine2
			{
				OFFSET 0.000000 -0.000002 9.814751
				CHANNELS 3 Xrotation Yrotation Zrotation
				JOINT Neck
				{
					OFFSET 0.000000 -1.201384 25.198601
					CHANNELS 3 Xrotation Yrotation Zrotation
					JOINT Head
					{
						OFFSET 0.000000 0.000000 7.613144
						CHANNELS 3 Xrotation Yrotation Zrotation
						End Site
						{
							OFFSET 0.000000 6.077326 18.428101
						}
					}
				}
				JOINT RightShoulder
				{
					OFFSET -4.132698 0.575449 10.599205
					CHANNELS 3 Xrotation Yrotation Zrotation
					JOINT RightArm
					{
						OFFSET 0.000000 -0.000002 13.901794
						CHANNELS 3 Xrotation Yrotation Zrotation
						JOINT RightArmRoll
						{
							OFFSET 0.000000 0.000000 7.017883
							CHANNELS 3 Xrotation Yrotation Zrotation
							JOINT RightForeArm
							{
								OFFSET 0.000000 -0.000004 20.440598
								CHANNELS 3 Xrotation Yrotation Zrotation
								JOINT RightForeArmRoll
								{
									OFFSET 0.000000 -0.000002 7.875153
									CHANNELS 3 Xrotation Yrotation Zrotation
									JOINT RightHand
									{
										OFFSET 0.000000 -0.000002 15.803696
										CHANNELS 3 Xrotation Yrotation Zrotation
										End Site
										{
											OFFSET 0.000000 0.000000 0.100006
										}
									}
								}
							}
						}
					}
				}
				JOINT LeftShoulder
				{
					OFFSET 4.132698 0.575449 10.599205
					CHANNELS 3 Xrotation Yrotation Zrotation
					JOINT LeftArm
					{
						OFFSET 0.000000 -0.000002 13.901794
						CHANNELS 3 Xrotation Yrotation Zrotation
						JOINT LeftArmRoll
						{
							OFFSET 0.000000 0.000000 7.017883
							CHANNELS 3 Xrotation Yrotation Zrotation
							JOINT LeftForeArm
							{
								OFFSET 0.000000 -0.000004 20.440598
								CHANNELS 3 Xrotation Yrotation Zrotation
								JOINT LeftForeArmRoll
								{
									OFFSET 0.000000 -0.000002 7.875168
									CHANNELS 3 Xrotation Yrotation Zrotation
									JOINT LeftHand
									{
										OFFSET 0.000000 -0.000002 15.803696
										CHANNELS 3 Xrotation Yrotation Zrotation
										End Site
										{
											OFFSET 0.000000 0.000000 0.100006
										}
									}
								}
							}
						}
					}
				}
			}
		}
	}
	JOINT RightUpLeg
	{
		OFFSET -7.060478 1.086100 -1.294701
		CHANNELS 3 Xrotation Yrotation Zrotation
		JOINT RightUpLegRoll
		{
			OFFSET 0.000000 -0.000004 18.530800
			CHANNELS 3 Xrotation Yrotation Zrotation
			JOINT RightLeg
			{
				OFFSET 0.000000 0.000004 -22.947601
				CHANNELS 3 Xrotation Yrotation Zrotation
				JOINT RightLegRoll
				{
					OFFSET 0.000000 -0.000004 23.022598
					CHANNELS 3 Xrotation Yrotation Zrotation
					JOINT RightFoot
					{
						OFFSET 0.000000 -0.000002 19.162506
						CHANNELS 3 Xrotation Yrotation Zrotation
						JOINT RightToeBase
						{
							OFFSET 0.000000 -0.000004 16.018799
							CHANNELS 3 Xrotation Yrotation Zrotation
							End Site
							{
								OFFSET 0.006790 0.894205 7.757812
							}
						}
					}
				}
			}
		}
	}
	JOINT LeftUpLeg
	{
		OFFSET 7.060478 1.086100 -1.294701
		CHANNELS 3 Xrotation Yrotation Zrotation
		JOINT LeftUpLegRoll
		{
			OFFSET 0.000000 -0.000004 18.530899
			CHANNELS 3 Xrotation Yrotation Zrotation
			JOINT LeftLeg
			{
				OFFSET 0.000000 -0.000004 22.947502
				CHANNELS 3 Xrotation Yrotation Zrotation
				JOINT LeftLegRoll
				{
					OFFSET 0.000000 -0.000004 23.235504
					CHANNELS 3 Xrotation Yrotation Zrotation
					JOINT LeftFoot
					{
						OFFSET 0.000000 -0.000002 18.949600
						CHANNELS 3 Xrotation Yrotation Zrotation
						JOINT LeftToeBase
						{
							OFFSET 0.000000 -0.000004 16.018799
							CHANNELS 3 Xrotation Yrotation Zrotation
							End Site
							{
								OFFSET -0.030430 0.894205 7.757812
							}
						}
					}
				}
			}
		}
	}
}
MOTION
Frames: 13
Frame Time: 0.041667
45.742092 -15.061516 96.057800 -4.863896 -2.093920 21.698756 0.213061 -0.376298 0.152008 4.430081 -0.750193 0.326096 6.075208 -0.746235 0.335056 11.904986 23.284368 -5.533950 13.017937 -26.608177 -1.011566 -2.050908 -60.507976 -2.612678 1305.694369 -63.447014 1284.836283 0.000000 0.000002 -0.000004 94.030593 2.245744 -9.583019 0.000002 0.000034 -2.999989 -4.999985 -8.000090 -0.000007 -17.795785 59.413118 21.036995 54.372496 113.034706 -22.383027 -0.000018 -0.000030 0.000000 90.453964 0.585157 8.291675 0.000001 -0.000000 3.000000 -5.000004 8.000073 0.000021 6.604994 -178.867560 3.559767 179.999991 -0.000005 -1.251995 171.122726 -1.994833 -0.633505 -0.000002 0.000001 0.183649 70.954519 6.890347 2.000718 26.834647 -7.350419 0.381266 -6.769309 172.900324 1.736048 -0.000020 -0.000004 -1.288019 -14.083001 -3.290890 -0.023142 -0.000004 -0.000002 0.078537 66.886642 -7.067284 -1.829097 25.456882 7.344526 0.000007 
45.730595 -15.069516 96.083809 -4.875835 -2.087775 21.553039 0.212644 -0.374152 0.147337 4.429215 -0.745969 0.316583 6.074341 -0.742125 0.325490 11.979074 23.131011 -5.492419 12.913676 -26.453801 -1.004806 -2.161583 -60.454510 -2.736222 1306.636498 -63.052611 1285.121293 -0.000000 0.000004 -0.000004 94.168604 2.349907 -9.782531 0.000007 0.000035 -2.999990 -4.999985 -8.000092 -0.000007 -17.595160 59.448020 20.800289 54.429798 113.092886 -22.466297 -0.000018 -0.000031 0.000001 90.528092 0.560251 8.331407 0.000002 0.000001 3.000001 -5.000004 8.000073 0.000022 6.596733 -178.844706 3.577345 179.999991 -0.000005 -1.251995 171.116743 -2.003695 -0.634105 -0.000002 0.000002 0.183778 70.945298 6.890526 2.000519 26.813432 -7.350436 0.388330 -6.711723 172.870681 1.684911 -0.000019 -0.000004 -1.289691 -14.066699 -3.257924 -0.019617 -0.000004 -0.000001 0.078206 66.873624 -7.067220 -1.830122 25.456878 7.344525 0.000007 
45.733795 -15.077416 96.081200 -4.888305 -2.081936 21.403880 0.212434 -0.371929 0.142722 4.428751 -0.741587 0.307062 6.073886 -0.737857 0.315920 12.052132 22.977977 -5.448824 12.812587 -26.300183 -0.995237 -2.268568 -60.392410 -2.854530 1307.535679 -62.653407 1285.367836 0.000000 0.000003 -0.000004 94.309797 2.454347 -9.984364 0.000006 0.000034 -2.999992 -4.999987 -8.000090 -0.000007 -17.398773 59.483298 20.568601 54.490382 113.148224 -22.551295 -0.000016 -0.000031 -0.000000 90.602774 0.535684 8.371184 0.000000 0.000000 3.000001 -5.000003 8.000073 0.000023 6.588550 -178.819844 3.596720 179.999991 -0.000005 -1.251996 171.111101 -2.014529 -0.635999 -0.000003 0.000001 0.183910 70.935538 6.890669 2.000348 26.790896 -7.350446 0.395414 -6.651644 172.841011 1.631483 -0.000018 -0.000004 -1.291420 -14.048477 -3.223135 -0.015872 -0.000004 -0.000001 0.077822 66.859977 -7.067204 -1.831196 25.456883 7.344523 0.000008 
45.735397 -15.089116 96.060806 -4.901309 -2.076417 21.251082 0.212435 -0.369637 0.138132 4.428727 -0.737073 0.297517 6.073850 -0.733458 0.306321 12.123403 22.826578 -5.403250 12.715088 -26.148273 -0.982824 -2.371287 -60.321990 -2.966942 1308.390382 -62.251526 1285.575692 -0.000000 0.000001 -0.000003 94.452241 2.558248 -10.184468 0.000006 0.000032 -2.999993 -4.999982 -8.000093 -0.000007 -17.207132 59.519430 20.342571 54.554090 113.200659 -22.637906 -0.000016 -0.000031 0.000000 90.677721 0.511543 8.411972 -0.000002 0.000001 3.000001 -5.000002 8.000073 0.000022 6.580342 -178.793001 3.617637 179.999991 -0.000005 -1.251995 171.105569 -2.026362 -0.637052 -0.000001 0.000001 0.184040 70.925258 6.890844 2.000013 26.767054 -7.350465 0.402551 -6.589194 172.810302 1.576234 -0.000020 -0.000004 -1.293219 -14.028736 -3.186811 -0.011951 -0.000004 -0.000001 0.077383 66.846119 -7.067116 -1.832470 25.456887 7.344535 0.000012 
45.730396 -15.095119 96.074898 -4.914881 -2.071214 21.094932 0.212668 -0.367294 0.133556 4.429153 -0.732452 0.287928 6.074285 -0.728953 0.296676 12.192571 22.678040 -5.355918 12.621642 -25.999525 -0.967455 -2.469111 -60.243771 -3.072795 1309.198420 -61.849446 1285.744644 0.000004 0.000001 -0.000002 94.594077 2.660685 -10.383748 0.000008 0.000033 -2.999989 -4.999986 -8.000091 -0.000007 -17.020497 59.556422 20.122511 54.620750 113.250117 -22.726136 -0.000018 -0.000031 0.000001 90.752560 0.487777 8.451794 0.000003 -0.000000 3.000001 -5.000005 8.000073 0.000024 6.572006 -178.765175 3.639710 179.999991 -0.000005 -1.251994 171.099941 -2.039166 -0.638264 -0.000002 0.000001 0.184175 70.914644 6.890983 1.999794 26.741997 -7.350490 0.409780 -6.524470 172.779566 1.519378 -0.000021 -0.000005 -1.295072 -14.007784 -3.149235 -0.007880 -0.000004 -0.000000 0.076899 66.831960 -7.067111 -1.833781 25.456880 7.344534 0.000015 
45.739395 -15.110714 96.064392 -4.929033 -2.066317 20.935136 0.213148 -0.364911 0.128964 4.430068 -0.727752 0.278269 6.075199 -0.724368 0.286967 12.258970 22.533298 -5.306877 12.532671 -25.854909 -0.949123 -2.561491 -60.157984 -3.171464 1309.963511 -61.451219 1285.879936 0.000002 0.000002 -0.000004 94.733563 2.760897 -10.580146 0.000007 0.000032 -2.999992 -4.999982 -8.000092 -0.000008 -16.839283 59.594507 19.908946 54.688164 113.297013 -22.814000 -0.000018 -0.000030 0.000001 90.826927 0.464417 8.491640 0.000001 0.000001 3.000000 -5.000001 8.000073 0.000022 6.563459 -178.736338 3.662700 179.999991 -0.000005 -1.251994 171.093985 -2.051982 -0.639474 -0.000003 0.000002 0.184311 70.903716 6.891117 1.999693 26.716029 -7.350509 0.417201 -6.457601 172.748803 1.461270 -0.000021 -0.000004 -1.296970 -13.986026 -3.110711 -0.003718 -0.000004 -0.000000 0.076363 66.817801 -7.067063 -1.835082 25.456887 7.344535 0.000013 
45.733894 -15.115418 96.066910 -4.943789 -2.061728 20.771999 0.213887 -0.362499 0.124338 4.431504 -0.722996 0.268530 6.076632 -0.719729 0.277173 12.322175 22.393549 -5.256343 12.448582 -25.715580 -0.927810 -2.647834 -60.065237 -3.262346 1310.681610 -61.057834 1285.979493 0.000005 0.000002 -0.000003 94.868732 2.858310 -10.770544 0.000008 0.000033 -2.999989 -4.999985 -8.000090 -0.000006 -16.663968 59.634095 19.702429 54.759846 113.340036 -22.905232 -0.000017 -0.000031 0.000001 90.900522 0.441462 8.531534 0.000003 0.000000 3.000001 -5.000002 8.000072 0.000023 6.554575 -178.706504 3.686351 179.999991 -0.000005 -1.251995 171.087482 -2.064793 -0.641719 -0.000003 0.000002 0.184447 70.892589 6.891317 1.999414 26.689056 -7.350534 0.424838 -6.388676 172.718012 1.402242 -0.000019 -0.000004 -1.298907 -13.963665 -3.071527 0.000514 -0.000005 0.000000 0.075783 66.803840 -7.066991 -1.836465 25.456882 7.344536 0.000013 
45.729496 -15.117718 96.067810 -4.959166 -2.057457 20.605311 0.214894 -0.360073 0.119664 4.433489 -0.718212 0.258691 6.078616 -0.715062 0.267278 12.381431 22.259938 -5.204385 12.369701 -25.582803 -0.903493 -2.727636 -59.965967 -3.344857 1311.353372 -60.672140 1286.045609 0.000002 0.000001 0.000000 94.997652 2.952065 -10.953861 0.000008 0.000035 -2.999989 -4.999985 -8.000090 -0.000009 -16.494827 59.675260 19.503330 54.833862 113.379788 -22.998149 -0.000018 -0.000031 0.000001 90.972867 0.418872 8.570438 0.000000 -0.000000 3.000000 -5.000007 8.000073 0.000021 6.545274 -178.674689 3.710518 179.999991 -0.000005 -1.251997 171.080215 -2.076601 -0.642843 -0.000003 0.000001 0.184588 70.881565 6.891479 1.999224 26.661374 -7.350551 0.432758 -6.317820 172.688192 1.342532 -0.000020 -0.000005 -1.300890 -13.941208 -3.031977 0.004771 -0.000004 -0.000000 0.075159 66.790070 -7.066906 -1.838032 25.456885 7.344543 0.000009 
45.723995 -15.125717 96.064308 -4.975191 -2.053480 20.435277 0.216190 -0.357646 0.114910 4.436035 -0.713424 0.248728 6.081171 -0.710394 0.257257 12.436413 22.133573 -5.151252 12.296419 -25.457654 -0.876197 -2.800354 -59.860372 -3.418422 1311.980111 -60.296678 1286.081782 0.000005 0.000001 -0.000000 95.118533 3.041441 -11.131981 0.000005 0.000033 -2.999989 -4.999986 -8.000094 -0.000007 -16.332347 59.718372 19.312256 54.909800 113.416015 -23.092402 -0.000017 -0.000031 0.000000 91.043662 0.396687 8.609395 0.000003 0.000001 3.000000 -5.000002 8.000073 0.000024 6.535447 -178.642860 3.734720 179.999991 -0.000005 -1.251995 171.071964 -2.089401 -0.645162 -0.000002 0.000001 0.184728 70.870623 6.891604 1.999124 26.632888 -7.350568 0.440993 -6.245172 172.657347 1.282705 -0.000021 -0.000003 -1.302898 -13.918957 -2.992350 0.009015 -0.000004 -0.000001 0.074495 66.776745 -7.066860 -1.839383 25.456887 7.344548 0.000007 
45.739998 -15.111617 96.076210 -4.991885 -2.049812 20.261795 0.217786 -0.355231 0.110064 4.439190 -0.708658 0.238621 6.084314 -0.705750 0.247098 12.486589 22.015657 -5.097135 12.229268 -25.341282 -0.845866 -2.865481 -59.749115 -3.482497 1312.559638 -59.933038 1286.087792 0.000006 0.000002 -0.000003 95.229346 3.125971 -11.298780 0.000006 0.000033 -2.999989 -4.999986 -8.000092 -0.000008 -16.176792 59.763534 19.129529 54.989563 113.448165 -23.190227 -0.000019 -0.000031 0.000000 91.112640 0.374910 8.647350 0.000003 -0.000001 3.000001 -5.000006 8.000073 0.000024 6.524995 -178.610062 3.758820 179.999991 -0.000005 -1.251998 171.062539 -2.100210 -0.646216 -0.000002 0.000001 0.184871 70.859927 6.891790 1.998816 26.603884 -7.350574 0.449633 -6.170794 172.628482 1.222773 -0.000020 -0.000005 -1.304939 -13.897324 -2.952938 0.013217 -0.000004 -0.000001 0.073795 66.764129 -7.066735 -1.840868 25.456885 7.344544 0.000007 
45.742294 -15.123918 96.074600 -5.009263 -2.046432 20.084866 0.219696 -0.352839 0.105097 4.442976 -0.703942 0.228361 6.088099 -0.701157 0.236783 12.531312 21.907232 -5.042151 12.168420 -25.234868 -0.812569 -2.922523 -59.632380 -3.536538 1313.093377 -59.583770 1286.067138 0.000007 0.000003 -0.000005 95.328083 3.204860 -11.455159 0.000004 0.000037 -2.999990 -4.999984 -8.000092 -0.000007 -16.028634 59.811017 18.955711 55.070818 113.476558 -23.289314 -0.000018 -0.000031 0.000000 91.179358 0.353550 8.686369 0.000003 -0.000000 3.000001 -5.000006 8.000073 0.000024 6.513824 -178.577249 3.782441 179.999991 -0.000005 -1.251999 171.051692 -2.111012 -0.648322 -0.000002 0.000001 0.185012 70.849532 6.891938 1.998685 26.574485 -7.350573 0.458718 -6.094834 172.599591 1.163304 -0.000020 -0.000005 -1.306988 -13.876500 -2.914044 0.017347 -0.000005 -0.000000 0.073061 66.752142 -7.066600 -1.842411 25.456882 7.344541 0.000009 
45.695194 -15.147120 96.103798 -5.027345 -2.043346 19.904582 0.221936 -0.350485 0.099992 4.447412 -0.699299 0.217914 6.092533 -0.696639 0.226279 12.570032 21.809313 -4.986455 12.114392 -25.139580 -0.776261 -2.971045 -59.510817 -3.580090 1313.579796 -59.250074 1286.020474 0.000007 0.000002 -0.000003 95.412859 3.277561 -11.599971 0.000007 0.000037 -2.999990 -4.999985 -8.000091 -0.000008 -15.888231 59.861110 18.791254 55.155325 113.500573 -23.391866 -0.000017 -0.000031 0.000000 91.243418 0.332513 8.722397 0.000000 0.000000 3.000001 -5.000000 8.000073 0.000024 6.501815 -178.544423 3.805341 179.999991 -0.000005 -1.251998 171.039152 -2.119831 -0.650184 -0.000002 0.000001 0.185159 70.839683 6.892124 1.998427 26.544682 -7.350569 0.468289 -6.017389 172.572680 1.104429 -0.000020 -0.000005 -1.309060 -13.857002 -2.875943 0.021370 -0.000005 -0.000000 0.072291 66.741105 -7.066487 -1.843797 25.456882 7.344548 0.000006 
45.700596 -15.144113 96.105797 -5.046160 -2.040547 19.720856 0.224513 -0.348179 0.094732 4.452528 -0.694756 0.207268 6.097658 -0.692225 0.215580 12.602338 21.723304 -4.930341 12.067472 -25.056587 -0.736982 -3.010550 -59.384725 -3.612617 1314.018676 -58.933953 1285.949549 0.000005 0.000001 -0.000002 95.481769 3.343489 -11.731104 0.000005 0.000035 -2.999991 -4.999983 -8.000094 -0.000009 -15.755967 59.913989 18.636630 55.242993 113.520121 -23.497818 -0.000015 -0.000031 0.000000 91.304548 0.311906 8.758448 0.000003 -0.000000 3.000001 -5.000001 8.000072 0.000023 6.488893 -178.511584 3.827251 179.999991 -0.000005 -1.251995 171.024781 -2.126656 -0.650808 -0.000003 0.000001 0.185305 70.830469 6.892270 1.998222 26.514772 -7.350540 0.478435 -5.938594 172.545769 1.046703 -0.000020 -0.000005 -1.311142 -13.839122 -2.838939 0.025252 -0.000004 -0.000000 0.071497 66.731194 -7.066268 -1.845389 25.456885 7.344554 0.000005 
